<svg width="214" height="36" viewBox="0 0 214 36" fill="none" xmlns="http://www.w3.org/2000/svg">
<g clip-path="url(#clip0_6097_1245)">
<path d="M61.8101 0C55.4801 0 50.3401 5.15 50.3401 11.47C50.3401 17.79 55.4901 22.94 61.8101 22.94C68.1301 22.94 73.2801 17.79 73.2801 11.47C73.2801 5.15 68.1401 0 61.8101 0ZM61.8101 17.57C58.4501 17.57 55.7101 14.83 55.7101 11.47C55.7101 8.11 58.4501 5.37 61.8101 5.37C65.1701 5.37 67.9101 8.11 67.9101 11.47C67.9101 14.83 65.1701 17.57 61.8101 17.57Z" fill="#00754A"/>
<path d="M26.7999 22.5502H21.1699V0.410156H26.7999V22.5502Z" fill="#00754A"/>
<path d="M44.34 0.410156H50.82L42.14 10.7502L51.43 22.5502H44.68L36 11.1602L44.34 0.410156Z" fill="#00754A"/>
<path d="M36.0399 0.410156H30.4099V22.5502H36.0399V0.410156Z" fill="#00754A"/>
<path d="M18.2 14.2002C17.98 13.6302 17.66 13.1202 17.22 12.6702C16.78 12.2202 16.23 11.8502 15.58 11.5602C14.92 11.2802 14.16 11.1202 13.27 11.1002V11.0102C14.04 10.8802 14.71 10.6802 15.29 10.4102C15.87 10.1402 16.35 9.79016 16.73 9.38016C17.11 8.97016 17.41 8.49016 17.61 7.94016C17.81 7.39016 17.92 6.77016 17.92 6.07016C17.92 5.16016 17.77 4.36016 17.46 3.65016C17.15 2.94016 16.69 2.35016 16.07 1.88016C15.45 1.41016 14.66 1.04016 13.7 0.790156C12.74 0.540156 11.61 0.410156 10.33 0.410156H0V22.5502H10.04C11.65 22.5502 12.99 22.3802 14.08 22.0402C15.17 21.7002 16.04 21.2402 16.71 20.6502C17.38 20.0602 17.85 19.3602 18.12 18.5602C18.39 17.7602 18.53 16.9002 18.53 16.0002C18.53 15.3702 18.42 14.7702 18.21 14.2002H18.2ZM10.51 14.1102C11.31 14.6902 11.83 15.6202 11.83 16.6802C11.83 18.4302 10.41 19.8602 8.65 19.8602C6.89 19.8602 5.47 18.4402 5.47 16.6802C5.47 15.6202 5.99 14.6802 6.79 14.1102C7.65 13.5402 8.21 12.5702 8.21 11.4602C8.21 10.3502 7.64 9.38016 6.79 8.81016C5.99 8.23016 5.47 7.30016 5.47 6.24016C5.47 4.49016 6.89 3.06016 8.65 3.06016C10.41 3.06016 11.83 4.48016 11.83 6.24016C11.83 7.30016 11.31 8.24016 10.51 8.81016C9.65 9.38016 9.09 10.3502 9.09 11.4602C9.09 12.5702 9.66 13.5402 10.51 14.1102Z" fill="#00754A"/>
<path d="M52.7499 27.3401H54.3799L52.1899 30.3301L54.5299 33.7401H52.8299L50.6399 30.4401L52.7399 27.3301L52.7499 27.3401Z" fill="#00754A"/>
<path d="M50.66 27.3398H49.24V33.7498H50.66V27.3398Z" fill="#00754A"/>
<path d="M0.0900879 27.3498H2.63009C4.03009 27.3498 4.74009 28.0298 4.74009 28.9898C4.74009 29.7498 4.25009 30.2198 3.59009 30.3598V30.4198C4.31009 30.4498 4.99009 31.0298 4.99009 31.9798C4.99009 32.9898 4.23009 33.7398 2.79009 33.7398H0.0900879V27.3398V27.3498ZM2.43009 30.0398C2.99009 30.0398 3.40009 29.7298 3.40009 29.2198C3.40009 28.7498 3.06009 28.4398 2.45009 28.4398H1.41009V30.0398H2.43009ZM2.53009 32.6698C3.29009 32.6698 3.62009 32.3498 3.62009 31.8698C3.62009 31.3298 3.21009 30.9498 2.56009 30.9498H1.41009V32.6698H2.53009Z" fill="#00754A"/>
<path d="M6.43998 26.9902C6.82998 26.9902 7.14998 27.2902 7.14998 27.6602C7.14998 28.0302 6.82998 28.3302 6.43998 28.3302C6.04998 28.3302 5.72998 28.0302 5.72998 27.6602C5.72998 27.2902 6.04998 26.9902 6.43998 26.9902ZM5.78998 28.9502H7.08998V33.7502H5.78998V28.9502Z" fill="#00754A"/>
<path d="M7.91016 31.3706C7.91016 29.8806 8.81016 28.8906 10.2602 28.8906C11.7102 28.8906 12.6002 29.8806 12.6002 31.3706C12.6002 32.8606 11.7002 33.8506 10.2602 33.8506C8.82016 33.8506 7.91016 32.8506 7.91016 31.3706ZM10.2702 32.8406C10.9402 32.8406 11.2802 32.2106 11.2802 31.3706C11.2802 30.5306 10.9302 29.9006 10.2702 29.9006C9.61016 29.9006 9.24016 30.5306 9.24016 31.3706C9.24016 32.2106 9.59016 32.8406 10.2702 32.8406Z" fill="#00754A"/>
<path d="M13.4602 27.3498H16.0002C17.4002 27.3498 18.1102 28.0298 18.1102 28.9898C18.1102 29.7498 17.6202 30.2198 16.9602 30.3598V30.4198C17.6802 30.4498 18.3602 31.0298 18.3602 31.9798C18.3602 32.9898 17.6002 33.7398 16.1602 33.7398H13.4602V27.3398V27.3498ZM15.8002 30.0398C16.3602 30.0398 16.7702 29.7298 16.7702 29.2198C16.7702 28.7498 16.4302 28.4398 15.8202 28.4398H14.7802V30.0398H15.8002ZM15.9002 32.6698C16.6602 32.6698 16.9902 32.3498 16.9902 31.8698C16.9902 31.3298 16.5802 30.9498 15.9302 30.9498H14.7802V32.6698H15.9002Z" fill="#00754A"/>
<path d="M19.8101 26.9902C20.2001 26.9902 20.5201 27.2902 20.5201 27.6602C20.5201 28.0302 20.2001 28.3302 19.8101 28.3302C19.4201 28.3302 19.1001 28.0302 19.1001 27.6602C19.1001 27.2902 19.4201 26.9902 19.8101 26.9902ZM19.1601 28.9502H20.4601V33.7502H19.1601V28.9502Z" fill="#00754A"/>
<path d="M21.42 34.1506H22.71C22.78 34.5406 23.14 34.7106 23.66 34.7106C24.27 34.7106 24.67 34.4506 24.67 33.7906V32.9006H24.61C24.43 33.2906 24.01 33.6906 23.24 33.6906C22.16 33.6906 21.29 32.9306 21.29 31.3306C21.29 29.7306 22.18 28.8906 23.23 28.8906C24.04 28.8906 24.42 29.3706 24.6 29.7606H24.65V28.9506H25.94V33.8006C25.94 35.0306 24.98 35.6506 23.62 35.6506C22.26 35.6506 21.49 35.0606 21.41 34.1406L21.42 34.1506ZM23.65 32.7006C24.29 32.7006 24.67 32.1906 24.67 31.3406C24.67 30.4906 24.3 29.9406 23.65 29.9406C23 29.9406 22.63 30.5206 22.63 31.3406C22.63 32.1606 22.99 32.7006 23.65 32.7006Z" fill="#00754A"/>
<path d="M26.99 33.7603V27.3604H29.26C31.18 27.3604 32.35 28.5604 32.35 30.5604C32.35 32.5604 31.18 33.7704 29.23 33.7704H26.98L26.99 33.7603ZM29.18 32.6203C30.39 32.6203 31.03 31.9904 31.03 30.5504C31.03 29.1104 30.39 28.5004 29.19 28.5004H28.32V32.6203H29.19H29.18Z" fill="#00754A"/>
<path d="M34.8301 30.9299C35.1701 30.9099 35.8201 30.8799 36.0201 30.8699V30.4799C36.0201 30.0699 35.74 29.8399 35.26 29.8399C34.81 29.8399 34.53 30.0399 34.46 30.3699H33.2201C33.2901 29.5299 34.0201 28.8799 35.2901 28.8799C36.3301 28.8799 37.32 29.3499 37.32 30.5099V33.7499H36.0801V33.0799H36.0401C35.8101 33.5199 35.35 33.8399 34.64 33.8399C33.73 33.8399 33.05 33.3599 33.05 32.4099C33.05 31.3299 33.9101 30.9899 34.8301 30.9299ZM35.01 32.9399C35.6 32.9399 36.0201 32.5499 36.0201 32.0399V31.6899C35.83 31.6899 35.2601 31.7299 35.0401 31.7499C34.5901 31.7899 34.3 31.9999 34.3 32.3699C34.3 32.7399 34.6 32.9299 35.01 32.9299V32.9399Z" fill="#00754A"/>
<path d="M40.8202 29.9405H39.9202V32.2905C39.9202 32.6705 40.1102 32.7605 40.3702 32.7705C40.5002 32.7705 40.7202 32.7605 40.8802 32.7505V33.7805C40.7402 33.8005 40.5102 33.8305 40.1902 33.8305C39.2402 33.8305 38.6002 33.4005 38.6102 32.4705V29.9505H37.9502V28.9605H38.6102V27.8105H39.9102V28.9605H40.8102V29.9505L40.8202 29.9405Z" fill="#00754A"/>
<path d="M43.1902 30.9299C43.5302 30.9099 44.1802 30.8799 44.3802 30.8699V30.4799C44.3802 30.0699 44.1002 29.8399 43.6202 29.8399C43.1702 29.8399 42.8902 30.0399 42.8202 30.3699H41.5802C41.6502 29.5299 42.3802 28.8799 43.6502 28.8799C44.6902 28.8799 45.6802 29.3499 45.6802 30.5099V33.7499H44.4402V33.0799H44.4002C44.1702 33.5199 43.7102 33.8399 43.0002 33.8399C42.0902 33.8399 41.4102 33.3599 41.4102 32.4099C41.4102 31.3299 42.2702 30.9899 43.1902 30.9299ZM43.3702 32.9399C43.9602 32.9399 44.3802 32.5499 44.3802 32.0399V31.6899C44.1902 31.6899 43.6202 31.7299 43.4002 31.7499C42.9502 31.7899 42.6602 31.9999 42.6602 32.3699C42.6602 32.7399 42.9602 32.9299 43.3702 32.9299V32.9399Z" fill="#00754A"/>
<path d="M46.6801 33.0906C46.6801 32.6806 47.0101 32.3506 47.4201 32.3506C47.8301 32.3506 48.1501 32.6806 48.1601 33.0906C48.1601 33.5006 47.8101 33.8306 47.4201 33.8306C47.0301 33.8306 46.6701 33.5006 46.6801 33.0906Z" fill="#00754A"/>
<path d="M54.6301 31.3706C54.6301 29.8806 55.5301 28.8906 56.9801 28.8906C58.4301 28.8906 59.3201 29.8806 59.3201 31.3706C59.3201 32.8606 58.4201 33.8506 56.9801 33.8506C55.5401 33.8506 54.6301 32.8506 54.6301 31.3706ZM56.9901 32.8406C57.6601 32.8406 58.0001 32.2106 58.0001 31.3706C58.0001 30.5306 57.6501 29.9006 56.9901 29.9006C56.3301 29.9006 55.9601 30.5306 55.9601 31.3706C55.9601 32.2106 56.3101 32.8406 56.9901 32.8406Z" fill="#00754A"/>
<path d="M60.1401 28.9499H61.4001V29.7799H61.4501C61.6201 29.1899 62.0701 28.8799 62.6001 28.8799C62.7301 28.8799 62.9001 28.8999 63.0201 28.9199V30.0899C62.9001 30.0499 62.6501 30.0199 62.4601 30.0199C61.8701 30.0199 61.4401 30.4299 61.4401 31.0199V33.7499H60.1401V28.9499Z" fill="#00754A"/>
<path d="M63.3101 31.3806C63.3101 29.9006 64.2201 28.8906 65.6201 28.8906C66.8701 28.8906 67.8601 29.6906 67.8601 31.3306V31.7006H64.59C64.59 32.4306 65.0201 32.8806 65.6901 32.8806C66.1401 32.8806 66.46 32.6906 66.59 32.4006H67.8301C67.6401 33.2906 66.85 33.8606 65.67 33.8606C64.2 33.8606 63.3 32.9106 63.3 31.3906L63.3101 31.3806ZM66.64 30.8706C66.64 30.2906 66.2301 29.8706 65.6501 29.8706C65.0701 29.8706 64.63 30.3206 64.6 30.8706H66.64Z" fill="#00754A"/>
<path d="M70.2402 30.9299C70.5802 30.9099 71.2302 30.8799 71.4302 30.8699V30.4799C71.4302 30.0699 71.1502 29.8399 70.6702 29.8399C70.2202 29.8399 69.9402 30.0399 69.8702 30.3699H68.6302C68.7002 29.5299 69.4302 28.8799 70.7002 28.8799C71.7402 28.8799 72.7302 29.3499 72.7302 30.5099V33.7499H71.4902V33.0799H71.4502C71.2202 33.5199 70.7602 33.8399 70.0502 33.8399C69.1402 33.8399 68.4602 33.3599 68.4602 32.4099C68.4602 31.3299 69.3202 30.9899 70.2402 30.9299ZM70.4202 32.9399C71.0102 32.9399 71.4302 32.5499 71.4302 32.0399V31.6899C71.2402 31.6899 70.6702 31.7299 70.4502 31.7499C70.0002 31.7899 69.7102 31.9999 69.7102 32.3699C69.7102 32.7399 70.0102 32.9299 70.4202 32.9299V32.9399Z" fill="#00754A"/>
<path d="M195.96 29.0389H190.08V27.5889H188V33.7389H198.07V27.5889H195.96V29.0389ZM195.96 32.0189H190.08V30.6589H195.96V32.0189Z" fill="#54565A"/>
<path d="M195.96 19.019V22.159H193.44C193.02 20.539 191.48 19.429 189.55 19.439C187.23 19.429 185.52 20.939 185.53 23.009C185.52 25.119 187.22 26.619 189.55 26.619C191.5 26.619 193.05 25.489 193.44 23.829H195.95V26.899H198.06V18.999H195.95L195.96 19.019ZM189.56 24.859C188.38 24.859 187.55 24.139 187.55 23.019C187.55 21.899 188.38 21.199 189.56 21.209C190.71 21.209 191.53 21.899 191.54 23.019C191.53 24.149 190.71 24.859 189.56 24.859Z" fill="#54565A"/>
<path d="M204.07 28.5596H201.96V33.6396H212.29V31.9396H204.07V28.5596Z" fill="#54565A"/>
<path d="M208.39 25.0598C206.71 25.4198 205.21 25.5098 202.47 25.5198V21.6998H207.17V20.0098H200.37V27.2198H201.63C204.98 27.2198 206.72 27.1298 208.62 26.7398L208.4 25.0498L208.39 25.0598Z" fill="#54565A"/>
<path d="M211.75 22.9295V19.0195H209.63V29.7195H211.75V24.6695H213.79V22.9295H211.75Z" fill="#54565A"/>
<path d="M111.9 19.0195H109.86V33.7495H111.9V19.0195Z" fill="#54565A"/>
<path d="M106.7 19.0195V24.3195H104.01V26.0495H106.7V33.7495H108.73V19.0195H106.7Z" fill="#54565A"/>
<path d="M101.34 28.7798V22.2098H105.05V20.5098H99.27V30.5298H100.31C102.53 30.5298 104.05 30.4598 105.75 30.1198L105.59 28.3798C104.18 28.6698 102.95 28.7598 101.34 28.7698V28.7798Z" fill="#54565A"/>
<path d="M125.87 19.0195H123.73V33.7495H125.87V19.0195Z" fill="#54565A"/>
<path d="M117.67 19.8691C115.36 19.8691 113.67 21.9591 113.68 25.2391C113.68 28.5591 115.36 30.6391 117.67 30.6391C119.98 30.6391 121.64 28.5591 121.65 25.2391C121.65 21.9591 119.96 19.8691 117.67 19.8691ZM117.67 28.7191C116.5 28.7191 115.71 27.4991 115.72 25.2391C115.71 23.0091 116.49 21.7791 117.67 21.7791C118.85 21.7791 119.6 23.0091 119.6 25.2391C119.6 27.4691 118.82 28.7191 117.67 28.7191Z" fill="#54565A"/>
<path d="M136.11 28.4091C134.23 28.6991 132.56 28.7791 130.47 28.7991V25.9491H134.86V24.2891H130.47V21.7891H135.41V20.0791H128.35V30.5191H129.55C132.14 30.5191 134.11 30.4391 136.32 30.0991L136.11 28.4091Z" fill="#54565A"/>
<path d="M138.3 19.0195V24.1395H135.65V25.8395H138.3V33.7495H140.39V19.0195H138.3Z" fill="#54565A"/>
<path d="M153.84 26.1095C154.23 23.9895 154.23 22.4495 154.23 21.0395V19.6895H143.66V21.3695H152.13C152.13 22.6795 152.09 24.1595 151.71 26.1095H142.09V27.8195H147.84V33.7495H149.97V27.8195H155.86V26.1095H153.85H153.84Z" fill="#54565A"/>
<path d="M157.09 24.1193L157.73 25.6993C160.5 25.4993 162.42 24.6993 163.37 23.4793C164.31 24.7093 166.23 25.4993 169.01 25.6993L169.66 24.1193C166.36 23.8993 164.83 22.9193 164.59 21.8293H168.95V20.1893H164.43V18.8193H162.33V20.1893H157.84V21.8293H162.16C161.9 22.9193 160.37 23.8993 157.1 24.1193H157.09Z" fill="#54565A"/>
<path d="M158.03 29.2193V30.8993H166.48V33.7493H168.6V29.2193H164.42V27.9093H170.28V26.2393H156.51V27.9093H162.32V29.2193H158.03Z" fill="#54565A"/>
<path d="M180.05 28.8297C177.63 27.6597 176.47 24.9297 176.48 22.2297V19.9697H174.36V22.2297C174.36 25.0297 173.15 27.9197 170.59 29.0897L171.89 30.8097C173.6 29.9597 174.77 28.3597 175.43 26.4097C176.06 28.2297 177.15 29.7197 178.77 30.5197L180.05 28.8397V28.8297Z" fill="#54565A"/>
<path d="M182.84 19.0195H180.72V33.7495H182.84V26.4095H185.07V24.6195H182.84V19.0195Z" fill="#54565A"/>
<path d="M94.8999 33.7491H97.0199V28.5391H86.6499V30.2091H94.8999V33.7491Z" fill="#54565A"/>
<path d="M97.0199 19.0195H94.8999V27.8295H97.0199V19.0195Z" fill="#54565A"/>
<path d="M92.5299 19.6992H90.4199V21.7192H87.2499V19.6992H85.1599V27.0192H92.5299V19.6992ZM90.4099 25.3392H87.2399V23.3492H90.4099V25.3392Z" fill="#54565A"/>
<path d="M141.93 9.6093H128.12V7.9493H133.95V7.0193H129.85V0.529297H140.31V2.1693H131.96V3.0093H139.96V4.5493H131.96V5.4093H140.44V7.0193H136.07V7.9493H141.92V9.6093H141.93ZM135.01 10.2993C138.34 10.2993 140.26 11.1893 140.27 12.7793C140.26 14.4093 138.34 15.2693 135.01 15.2693C131.64 15.2693 129.73 14.4093 129.73 12.7793C129.73 11.1493 131.64 10.2893 135.01 10.2993ZM135.01 13.6993C137.14 13.6993 138.14 13.4193 138.15 12.7793C138.15 12.1493 137.14 11.8693 135.01 11.8693C132.88 11.8693 131.84 12.1493 131.84 12.7793C131.84 13.4293 132.84 13.7093 135.01 13.6993Z" fill="#54565A"/>
<path d="M198.41 5.07922C198.41 7.35922 196.48 8.88922 193.77 9.19922V11.7792H199.66V13.4992H185.85V11.7792H191.67V9.18922C188.97 8.88922 187.05 7.34922 187.06 5.07922C187.06 2.59922 189.48 0.949219 192.72 0.949219C195.96 0.949219 198.41 2.59922 198.41 5.07922ZM192.72 7.56922C194.85 7.56922 196.31 6.66922 196.32 5.07922C196.32 3.56922 194.85 2.63922 192.72 2.63922C190.59 2.63922 189.14 3.56922 189.14 5.07922C189.14 6.67922 190.61 7.56922 192.72 7.56922Z" fill="#54565A"/>
<path d="M111.17 6.02934C111.48 4.40934 111.48 3.12934 111.48 2.00934V0.819336H100.99V2.50934H109.36C109.36 3.50934 109.31 4.60934 109.04 6.02934H99.2998V7.71934H105.11V9.87934H100.68V11.5393H109.35V15.0993H111.47V9.87934H107.22V7.71934H113.09V6.02934H111.15H111.17Z" fill="#54565A"/>
<path d="M184.06 0.389648H181.92V15.1196H184.06V0.389648Z" fill="#54565A"/>
<path d="M175.86 1.22949C173.55 1.22949 171.86 3.31949 171.87 6.59949C171.87 9.91949 173.55 11.9995 175.86 11.9995C178.17 11.9995 179.83 9.91949 179.84 6.59949C179.84 3.31949 178.15 1.22949 175.86 1.22949ZM175.86 10.0795C174.69 10.0795 173.9 8.85949 173.91 6.59949C173.9 4.36949 174.68 3.13949 175.86 3.13949C177.04 3.13949 177.79 4.36949 177.79 6.59949C177.79 8.82949 177.01 10.0795 175.86 10.0795Z" fill="#54565A"/>
<path d="M164.84 1.37988H162.73V5.04988H159.59V1.37988H157.48V11.7699H164.84V1.37988ZM162.73 10.0499H159.59V6.68988H162.73V10.0499Z" fill="#54565A"/>
<path d="M168.91 0.389648H166.79V15.1096H168.91V7.57965H171.14V5.80965H168.91V0.389648Z" fill="#54565A"/>
<path d="M151.54 1.49957H148.12V0.0595703H146.01V1.49957H142.57V3.15957H151.54V1.49957Z" fill="#54565A"/>
<path d="M150.77 6.2491C150.77 4.6391 149.25 3.5891 147.06 3.5791C144.83 3.5791 143.31 4.6391 143.31 6.2491C143.31 7.8591 144.83 8.9191 147.06 8.9191C149.25 8.9191 150.77 7.8591 150.77 6.2491ZM145.37 6.2491C145.37 5.5491 146.04 5.1291 147.06 5.1391C148.07 5.1391 148.76 5.5491 148.77 6.2491C148.77 6.9791 148.07 7.3791 147.06 7.3791C146.05 7.3791 145.37 6.9891 145.37 6.2491Z" fill="#54565A"/>
<path d="M154.56 3.80965V0.389648H152.43V9.00965H154.56V5.56965H156.59V3.80965H154.56Z" fill="#54565A"/>
<path d="M152.43 10.7391H146.77V9.5791H144.67V15.0891H154.55V9.5791H152.43V10.7391ZM152.43 13.4291H146.77V12.3591H152.43V13.4291Z" fill="#54565A"/>
<path d="M114.42 3.43973H119.45C119.05 6.80973 117.13 9.20973 113.57 11.0097L114.76 12.6297C119.83 10.1397 121.6 6.22973 121.61 1.71973H114.42V3.44973V3.43973Z" fill="#54565A"/>
<path d="M125.64 5.94965V0.389648H123.52V15.1096H125.64V7.69965H127.77V5.94965H125.64Z" fill="#54565A"/>
</g>
<defs>
<clipPath id="clip0_6097_1245">
<rect width="213.79" height="35.66" fill="white"/>
</clipPath>
</defs>
</svg>
